<svg width="27" height="26" viewBox="0 0 27 26" fill="none" xmlns="http://www.w3.org/2000/svg">
<path d="M12.2148 2.10526C12.7978 1.13653 14.2022 1.13653 14.7852 2.10526L17.7367 7.00957C18.0857 7.5896 18.6551 8.00327 19.3146 8.15602L24.8909 9.44751C25.9924 9.70261 26.4264 11.0383 25.6853 11.8921L21.933 16.2146C21.4893 16.7259 21.2718 17.3952 21.3303 18.0696L21.8252 23.7721C21.923 24.8985 20.7867 25.724 19.7457 25.283L14.4752 23.0501C13.8519 22.7861 13.1481 22.7861 12.5248 23.0501L7.25431 25.283C6.21326 25.724 5.07704 24.8985 5.1748 23.7721L5.6697 18.0696C5.72823 17.3952 5.51075 16.7259 5.06698 16.2146L1.31475 11.8921C0.573586 11.0383 1.00758 9.70261 2.10905 9.4475L7.68538 8.15602C8.34489 8.00327 8.91426 7.5896 9.26333 7.00957L12.2148 2.10526Z" stroke="#014F9C"/>
</svg>
