<svg width="13" height="13" viewBox="0 0 13 13" fill="none" xmlns="http://www.w3.org/2000/svg">
<path d="M5.64319 1.42372C6.03185 0.777901 6.96815 0.777901 7.35681 1.42372L8.75025 3.73914C8.88988 3.97115 9.11762 4.13662 9.38143 4.19772L12.0141 4.80745C12.7484 4.97752 13.0378 5.86799 12.5437 6.4372L10.7722 8.47794C10.5946 8.68243 10.5077 8.95017 10.5311 9.21994L10.7647 11.9122C10.8299 12.6631 10.0724 13.2135 9.37838 12.9194L6.89009 11.8653C6.64076 11.7596 6.35924 11.7596 6.10991 11.8653L3.62163 12.9194C2.92759 13.2135 2.17011 12.6631 2.23528 11.9122L2.46893 9.21994C2.49235 8.95017 2.40535 8.68243 2.22784 8.47794L0.456346 6.4372C-0.0377623 5.86799 0.25157 4.97752 0.985884 4.80745L3.61857 4.19772C3.88238 4.13662 4.11013 3.97115 4.24975 3.73914L5.64319 1.42372Z" fill="white"/>
</svg>
